<?xml version="1.0" encoding="iso-8859-1"?>
<!-- Generator: Adobe Illustrator 16.0.0, SVG Export Plug-In . SVG Version: 6.00 Build 0)  -->
<!DOCTYPE svg PUBLIC "-//W3C//DTD SVG 1.1//EN" "http://www.w3.org/Graphics/SVG/1.1/DTD/svg11.dtd">
<svg version="1.1" id="Layer_1" xmlns="http://www.w3.org/2000/svg" xmlns:xlink="http://www.w3.org/1999/xlink" x="0px" y="0px"
	 width="209.5px" height="38.071px" viewBox="0 0 209.5 38.071" style="enable-background:new 0 0 209.5 38.071;"
	 xml:space="preserve">
<g>
	<path style="fill:#FFFFFF;" d="M0.8,20.792C0.8,9.658,5.783,4.091,15.749,4.091c2.215,0,4.237,0.316,6.067,0.946
		c1.83,0.631,2.745,1.269,2.745,1.915c0,0.431-0.192,0.985-0.576,1.661c-0.386,0.677-0.716,1.015-0.992,1.015
		C22.93,9.627,22.6,9.458,22,9.12c-0.6-0.338-1.453-0.676-2.561-1.015s-2.307-0.508-3.599-0.508c-3.906,0-6.69,1.077-8.351,3.229
		c-1.661,2.154-2.492,5.337-2.492,9.551c0,8.705,3.444,13.057,10.335,13.057c2.43,0,4.413-0.2,5.952-0.6v-9.32h-5.398
		c-0.615,0-0.923-0.461-0.923-1.384v-0.738c0-0.923,0.308-1.384,0.923-1.384h8.074c0.923,0,1.384,0.461,1.384,1.384v12.227
		c0,2.214-3.43,3.322-10.288,3.322C5.552,36.941,0.8,31.559,0.8,20.792z"/>
</g>
<g>
	<path style="fill:#FFFFFF;" d="M30.098,35.741V19.547c0-1.875-0.077-3.214-0.23-4.014c-0.216-1.107-0.323-1.707-0.323-1.799
		c0-0.369,0.292-0.638,0.877-0.807c0.584-0.169,1.038-0.254,1.361-0.254c0.322,0,0.545,0.031,0.669,0.092
		c0.122,0.062,0.237,0.162,0.346,0.3c0.107,0.139,0.191,0.277,0.254,0.416c0.061,0.138,0.122,0.323,0.185,0.554
		c0.061,0.23,0.115,0.415,0.161,0.553c0.046,0.139,0.093,0.339,0.139,0.6c0.046,0.262,0.084,0.438,0.115,0.53
		c1.63-2.307,3.414-3.46,5.352-3.46c0.861,0,1.522,0.169,1.984,0.507c0.461,0.339,0.692,0.769,0.692,1.292
		c0,0.523-0.093,1.069-0.277,1.638c-0.185,0.57-0.4,0.854-0.646,0.854c-0.124,0-0.424-0.084-0.9-0.253
		c-0.477-0.169-1.046-0.254-1.707-0.254s-1.346,0.239-2.053,0.715c-0.708,0.478-1.23,0.946-1.568,1.407l-0.554,0.692v16.886
		c0,0.677-0.616,1.015-1.846,1.015h-0.185C30.713,36.756,30.098,36.418,30.098,35.741z"/>
</g>
<g>
	<path style="fill:#FFFFFF;" d="M46.292,33.942c-1.846-1.999-2.769-5.052-2.769-9.158c0-4.106,0.907-7.221,2.723-9.343
		c1.814-2.123,4.398-3.184,7.751-3.184c6.521,0,9.781,4.014,9.781,12.042c0,0.277-0.185,0.662-0.554,1.153
		c-0.369,0.492-0.692,0.738-0.969,0.738H47.676c0.185,2.553,0.845,4.429,1.983,5.629c1.138,1.199,2.845,1.799,5.121,1.799
		c2.092,0,4.015-0.492,5.768-1.477c0.584-0.307,0.907-0.461,0.969-0.461c0.308,0,0.653,0.308,1.038,0.923
		c0.385,0.616,0.577,1.077,0.577,1.384c0,0.615-0.839,1.261-2.515,1.938c-1.677,0.677-3.606,1.015-5.79,1.015
		C50.982,36.941,48.137,35.942,46.292,33.942z M59.671,22.869c0-4.859-1.846-7.29-5.536-7.29c-3.968,0-6.121,2.43-6.459,7.29H59.671
		z"/>
</g>
<g>
	<path style="fill:#FFFFFF;" d="M70.238,33.942c-1.846-1.999-2.769-5.052-2.769-9.158c0-4.106,0.907-7.221,2.723-9.343
		c1.814-2.123,4.398-3.184,7.751-3.184c6.521,0,9.781,4.014,9.781,12.042c0,0.277-0.185,0.662-0.554,1.153
		c-0.369,0.492-0.692,0.738-0.969,0.738H71.623c0.185,2.553,0.845,4.429,1.983,5.629c1.138,1.199,2.845,1.799,5.121,1.799
		c2.092,0,4.015-0.492,5.768-1.477c0.584-0.307,0.907-0.461,0.969-0.461c0.308,0,0.653,0.308,1.038,0.923
		c0.385,0.616,0.577,1.077,0.577,1.384c0,0.615-0.839,1.261-2.515,1.938c-1.677,0.677-3.606,1.015-5.79,1.015
		C74.928,36.941,72.083,35.942,70.238,33.942z M83.618,22.869c0-4.859-1.846-7.29-5.536-7.29c-3.968,0-6.121,2.43-6.459,7.29H83.618
		z"/>
</g>
<g>
	<path style="fill:#FFFFFF;" d="M91.922,35.741V19.547c0-1.875-0.077-3.214-0.23-4.014c-0.216-1.107-0.323-1.707-0.323-1.799
		c0-0.369,0.292-0.638,0.877-0.807c0.584-0.169,1.038-0.254,1.361-0.254c0.322,0,0.545,0.031,0.669,0.092
		c0.122,0.062,0.237,0.162,0.346,0.3c0.107,0.139,0.191,0.277,0.254,0.416c0.062,0.138,0.122,0.323,0.185,0.554
		c0.061,0.23,0.115,0.415,0.161,0.553c0.046,0.139,0.093,0.339,0.139,0.6c0.046,0.262,0.084,0.438,0.115,0.53
		c2.061-2.307,4.36-3.46,6.897-3.46c2.538,0,4.476,0.662,5.813,1.984c1.338,1.323,2.007,3.153,2.007,5.49v16.01
		c0,0.677-0.615,1.015-1.846,1.015h-0.185c-1.23,0-1.845-0.338-1.845-1.015V20.101c0-1.415-0.408-2.515-1.223-3.299
		c-0.815-0.784-1.978-1.177-3.483-1.177c-2.215,0-4.153,1.077-5.813,3.23v16.886c0,0.677-0.616,1.015-1.846,1.015h-0.185
		C92.538,36.756,91.922,36.418,91.922,35.741z"/>
</g>
<g>
	<path style="fill:#8AC640;" d="M115.59,32.973c0-0.708,0.354-1.569,1.062-2.584c0.707-1.015,1.307-1.522,1.8-1.522
		c0.185,0,0.584,0.169,1.199,0.508c1.907,1.077,3.768,1.615,5.583,1.615c2.891,0,4.337-1.123,4.337-3.368
		c0-0.984-0.462-1.814-1.385-2.492c-0.923-0.676-2.038-1.269-3.345-1.776c-1.308-0.508-2.606-1.092-3.898-1.753
		c-1.292-0.661-2.399-1.684-3.322-3.068c-0.923-1.384-1.384-3.114-1.384-5.19s0.554-3.853,1.661-5.329
		c1.999-2.676,5.09-4.014,9.273-4.014c2.337,0,4.306,0.339,5.905,1.015c1.6,0.677,2.399,1.415,2.399,2.214
		c0,0.677-0.293,1.516-0.877,2.515c-0.584,1-1.138,1.5-1.66,1.5c-0.124,0-0.4-0.107-0.831-0.323c-1.23-0.553-2.652-0.83-4.268-0.83
		s-2.738,0.277-3.368,0.83c-0.631,0.554-0.945,1.246-0.945,2.077c0,0.83,0.461,1.568,1.384,2.214s2.03,1.215,3.322,1.707
		c1.291,0.493,2.591,1.069,3.898,1.73c1.307,0.662,2.422,1.684,3.345,3.068s1.384,3.038,1.384,4.96c0,1.922-0.3,3.568-0.899,4.937
		c-0.6,1.369-1.423,2.438-2.469,3.207c-2.029,1.477-4.521,2.215-7.474,2.215c-2.953,0-5.43-0.445-7.429-1.338
		C116.59,34.803,115.59,33.896,115.59,32.973z"/>
</g>
<g>
	<path style="fill:#8AC640;" d="M142.443,33.827c-1.907-2.138-2.86-5.221-2.86-9.25c0-4.029,0.953-7.105,2.86-9.228
		c1.907-2.123,4.69-3.184,8.352-3.184c3.661,0,6.436,1.061,8.329,3.184c1.891,2.122,2.836,5.198,2.836,9.228
		c0,4.03-0.945,7.113-2.836,9.25c-1.893,2.138-4.668,3.207-8.329,3.207C147.133,37.033,144.35,35.965,142.443,33.827z
		 M146.503,24.599c0,4.691,1.423,7.036,4.268,7.036c2.844,0,4.268-2.345,4.268-7.036c0-4.69-1.424-7.036-4.268-7.036
		C147.926,17.563,146.503,19.909,146.503,24.599z"/>
</g>
<g>
	<path style="fill:#8AC640;" d="M167.771,34.011c-1.906-2.014-2.859-5.105-2.859-9.274c0-4.167,0.961-7.305,2.883-9.412
		c1.922-2.106,4.914-3.16,8.975-3.16c1.875,0,3.621,0.285,5.236,0.854c1.615,0.569,2.422,1.346,2.422,2.33
		c0,0.461-0.314,1.169-0.945,2.122c-0.631,0.954-1.131,1.43-1.5,1.43c-0.123,0-0.4-0.107-0.83-0.323
		c-1.354-0.676-2.814-1.015-4.383-1.015s-2.768,0.569-3.6,1.707c-0.83,1.138-1.244,2.907-1.244,5.306
		c0,2.399,0.391,4.175,1.176,5.329c0.783,1.153,1.984,1.73,3.598,1.73c1.615,0,3.176-0.354,4.684-1.062
		c0.492-0.185,0.77-0.277,0.83-0.277c0.463,0,0.977,0.454,1.547,1.361c0.568,0.908,0.854,1.638,0.854,2.191s-0.34,1.061-1.016,1.522
		c-0.678,0.461-1.492,0.8-2.445,1.015c-1.969,0.43-3.506,0.646-4.613,0.646C172.602,37.033,169.68,36.026,167.771,34.011z"/>
</g>
<g>
	<path style="fill:#8AC640;" d="M187.936,35.28V3.353c0-0.984,0.922-1.477,2.768-1.477h1.293c1.846,0,2.768,0.493,2.768,1.477
		v18.271l0.184,0.046l5.584-8.351c0.398-0.584,1.338-0.876,2.814-0.876h1.707c1.723,0,2.584,0.23,2.584,0.692
		c0,0.247-0.139,0.554-0.416,0.923l-6.412,9.135l7.52,11.903c0.246,0.431,0.369,0.754,0.369,0.969c0,0.461-0.877,0.692-2.629,0.692
		h-1.939c-1.506,0-2.43-0.292-2.768-0.876l-6.414-10.612l-0.184,0.046v9.966c0,0.985-0.922,1.477-2.768,1.477h-1.293
		C188.857,36.756,187.936,36.265,187.936,35.28z"/>
</g>
</svg>
